<mxfile host="app.diagrams.net" agent="Mozilla/5.0 (Windows NT 10.0; Win64; x64) AppleWebKit/537.36 (KHTML, like Gecko) Chrome/130.0.0.0 Safari/537.36" version="24.8.4">
  <diagram name="Page-1" id="Tt7vzTi8FrwKoVP4LIpc">
    <mxGraphModel dx="1687" dy="2047" grid="1" gridSize="10" guides="1" tooltips="1" connect="1" arrows="1" fold="1" page="1" pageScale="1" pageWidth="827" pageHeight="1169" math="0" shadow="0">
      <root>
        <mxCell id="0" />
        <mxCell id="1" parent="0" />
        <mxCell id="Y8Cqh2QViEJ_tsUeTUq7-1" value="Actor" style="shape=umlActor;verticalLabelPosition=bottom;verticalAlign=top;html=1;outlineConnect=0;" parent="1" vertex="1">
          <mxGeometry x="360" y="-80" width="39" height="70" as="geometry" />
        </mxCell>
        <mxCell id="Y8Cqh2QViEJ_tsUeTUq7-3" value="CrÃ©er compte" style="ellipse;whiteSpace=wrap;html=1;" parent="1" vertex="1">
          <mxGeometry x="640" y="130" width="120" height="60" as="geometry" />
        </mxCell>
        <mxCell id="Y8Cqh2QViEJ_tsUeTUq7-4" value="Connexion" style="ellipse;whiteSpace=wrap;html=1;" parent="1" vertex="1">
          <mxGeometry x="460" y="292.5" width="120" height="75" as="geometry" />
        </mxCell>
        <mxCell id="Y8Cqh2QViEJ_tsUeTUq7-5" value="Voir panier" style="ellipse;whiteSpace=wrap;html=1;" parent="1" vertex="1">
          <mxGeometry x="40" y="212.5" width="120" height="80" as="geometry" />
        </mxCell>
        <mxCell id="Y8Cqh2QViEJ_tsUeTUq7-6" value="Visiter le site" style="ellipse;whiteSpace=wrap;html=1;" parent="1" vertex="1">
          <mxGeometry x="200" y="230" width="120" height="80" as="geometry" />
        </mxCell>
        <mxCell id="Y8Cqh2QViEJ_tsUeTUq7-7" value="Passer commande" style="ellipse;whiteSpace=wrap;html=1;" parent="1" vertex="1">
          <mxGeometry x="270" y="460" width="120" height="80" as="geometry" />
        </mxCell>
        <mxCell id="Y8Cqh2QViEJ_tsUeTUq7-8" value="" style="endArrow=none;html=1;rounded=0;" parent="1" source="Y8Cqh2QViEJ_tsUeTUq7-6" target="Y8Cqh2QViEJ_tsUeTUq7-1" edge="1">
          <mxGeometry width="50" height="50" relative="1" as="geometry">
            <mxPoint x="390" y="410" as="sourcePoint" />
            <mxPoint x="440" y="360" as="targetPoint" />
          </mxGeometry>
        </mxCell>
        <mxCell id="Y8Cqh2QViEJ_tsUeTUq7-9" value="" style="endArrow=none;html=1;rounded=0;exitX=0.658;exitY=0.063;exitDx=0;exitDy=0;exitPerimeter=0;" parent="1" source="Y8Cqh2QViEJ_tsUeTUq7-5" target="Y8Cqh2QViEJ_tsUeTUq7-1" edge="1">
          <mxGeometry width="50" height="50" relative="1" as="geometry">
            <mxPoint x="390" y="410" as="sourcePoint" />
            <mxPoint x="440" y="360" as="targetPoint" />
          </mxGeometry>
        </mxCell>
        <mxCell id="Y8Cqh2QViEJ_tsUeTUq7-10" value="" style="endArrow=none;html=1;rounded=0;entryX=0.5;entryY=0;entryDx=0;entryDy=0;" parent="1" source="Y8Cqh2QViEJ_tsUeTUq7-1" target="Y8Cqh2QViEJ_tsUeTUq7-4" edge="1">
          <mxGeometry width="50" height="50" relative="1" as="geometry">
            <mxPoint x="420" y="180" as="sourcePoint" />
            <mxPoint x="470" y="130" as="targetPoint" />
          </mxGeometry>
        </mxCell>
        <mxCell id="Y8Cqh2QViEJ_tsUeTUq7-11" value="" style="endArrow=none;html=1;rounded=0;entryX=0;entryY=0.5;entryDx=0;entryDy=0;" parent="1" source="Y8Cqh2QViEJ_tsUeTUq7-1" target="Y8Cqh2QViEJ_tsUeTUq7-3" edge="1">
          <mxGeometry width="50" height="50" relative="1" as="geometry">
            <mxPoint x="390" y="410" as="sourcePoint" />
            <mxPoint x="440" y="360" as="targetPoint" />
          </mxGeometry>
        </mxCell>
        <mxCell id="Y8Cqh2QViEJ_tsUeTUq7-12" value="" style="endArrow=none;html=1;rounded=0;exitX=0.725;exitY=0.013;exitDx=0;exitDy=0;exitPerimeter=0;" parent="1" source="Y8Cqh2QViEJ_tsUeTUq7-7" target="Y8Cqh2QViEJ_tsUeTUq7-1" edge="1">
          <mxGeometry width="50" height="50" relative="1" as="geometry">
            <mxPoint x="390" y="410" as="sourcePoint" />
            <mxPoint x="440" y="360" as="targetPoint" />
          </mxGeometry>
        </mxCell>
        <mxCell id="Y8Cqh2QViEJ_tsUeTUq7-14" value="Extends" style="endArrow=block;endSize=16;endFill=0;html=1;rounded=0;entryX=0.375;entryY=1.033;entryDx=0;entryDy=0;entryPerimeter=0;exitX=1;exitY=0;exitDx=0;exitDy=0;dashed=1;" parent="1" source="Y8Cqh2QViEJ_tsUeTUq7-4" target="Y8Cqh2QViEJ_tsUeTUq7-3" edge="1">
          <mxGeometry width="160" relative="1" as="geometry">
            <mxPoint x="570" y="300" as="sourcePoint" />
            <mxPoint x="730" y="300" as="targetPoint" />
          </mxGeometry>
        </mxCell>
        <mxCell id="Y8Cqh2QViEJ_tsUeTUq7-15" value="Include" style="endArrow=open;endSize=12;dashed=1;html=1;rounded=0;entryX=0.383;entryY=0.967;entryDx=0;entryDy=0;entryPerimeter=0;" parent="1" source="Y8Cqh2QViEJ_tsUeTUq7-7" target="Y8Cqh2QViEJ_tsUeTUq7-4" edge="1">
          <mxGeometry width="160" relative="1" as="geometry">
            <mxPoint x="490" y="380" as="sourcePoint" />
            <mxPoint x="560" y="460" as="targetPoint" />
          </mxGeometry>
        </mxCell>
        <mxCell id="Y8Cqh2QViEJ_tsUeTUq7-16" value="Include" style="endArrow=open;endSize=12;dashed=1;html=1;rounded=0;entryX=0.4;entryY=1;entryDx=0;entryDy=0;entryPerimeter=0;exitX=0.092;exitY=0.213;exitDx=0;exitDy=0;exitPerimeter=0;" parent="1" source="Y8Cqh2QViEJ_tsUeTUq7-7" target="Y8Cqh2QViEJ_tsUeTUq7-6" edge="1">
          <mxGeometry width="160" relative="1" as="geometry">
            <mxPoint x="379" y="480" as="sourcePoint" />
            <mxPoint x="516" y="375" as="targetPoint" />
          </mxGeometry>
        </mxCell>
        <mxCell id="Y8Cqh2QViEJ_tsUeTUq7-18" value="Payer" style="ellipse;whiteSpace=wrap;html=1;" parent="1" vertex="1">
          <mxGeometry x="259" y="620" width="140" height="70" as="geometry" />
        </mxCell>
        <mxCell id="Y8Cqh2QViEJ_tsUeTUq7-19" value="Include" style="endArrow=open;endSize=12;dashed=1;html=1;rounded=0;exitX=0.5;exitY=0;exitDx=0;exitDy=0;" parent="1" source="Y8Cqh2QViEJ_tsUeTUq7-18" target="Y8Cqh2QViEJ_tsUeTUq7-7" edge="1">
          <mxGeometry width="160" relative="1" as="geometry">
            <mxPoint x="291" y="487" as="sourcePoint" />
            <mxPoint x="118" y="270" as="targetPoint" />
          </mxGeometry>
        </mxCell>
        <mxCell id="Y8Cqh2QViEJ_tsUeTUq7-21" value="Carte" style="ellipse;whiteSpace=wrap;html=1;" parent="1" vertex="1">
          <mxGeometry x="190" y="750" width="140" height="70" as="geometry" />
        </mxCell>
        <mxCell id="Y8Cqh2QViEJ_tsUeTUq7-22" value="PayPal" style="ellipse;whiteSpace=wrap;html=1;" parent="1" vertex="1">
          <mxGeometry x="60" y="670" width="140" height="70" as="geometry" />
        </mxCell>
        <mxCell id="Y8Cqh2QViEJ_tsUeTUq7-23" value="" style="endArrow=classic;html=1;rounded=0;exitX=1;exitY=0.5;exitDx=0;exitDy=0;" parent="1" source="Y8Cqh2QViEJ_tsUeTUq7-22" target="Y8Cqh2QViEJ_tsUeTUq7-18" edge="1">
          <mxGeometry width="50" height="50" relative="1" as="geometry">
            <mxPoint x="330" y="810" as="sourcePoint" />
            <mxPoint x="380" y="760" as="targetPoint" />
          </mxGeometry>
        </mxCell>
        <mxCell id="Y8Cqh2QViEJ_tsUeTUq7-24" value="" style="endArrow=classic;html=1;rounded=0;entryX=0.421;entryY=0.986;entryDx=0;entryDy=0;entryPerimeter=0;" parent="1" source="Y8Cqh2QViEJ_tsUeTUq7-21" target="Y8Cqh2QViEJ_tsUeTUq7-18" edge="1">
          <mxGeometry width="50" height="50" relative="1" as="geometry">
            <mxPoint x="330" y="810" as="sourcePoint" />
            <mxPoint x="380" y="760" as="targetPoint" />
          </mxGeometry>
        </mxCell>
        <mxCell id="Y8Cqh2QViEJ_tsUeTUq7-25" value="Confirmation&lt;div&gt;Recapitulatif&lt;/div&gt;" style="ellipse;whiteSpace=wrap;html=1;" parent="1" vertex="1">
          <mxGeometry x="550" y="570" width="120" height="80" as="geometry" />
        </mxCell>
        <mxCell id="Y8Cqh2QViEJ_tsUeTUq7-26" value="Include" style="endArrow=open;endSize=12;dashed=1;html=1;rounded=0;exitX=0;exitY=0.5;exitDx=0;exitDy=0;entryX=1;entryY=0.5;entryDx=0;entryDy=0;" parent="1" source="Y8Cqh2QViEJ_tsUeTUq7-25" target="Y8Cqh2QViEJ_tsUeTUq7-18" edge="1">
          <mxGeometry width="160" relative="1" as="geometry">
            <mxPoint x="339" y="630" as="sourcePoint" />
            <mxPoint x="340" y="550" as="targetPoint" />
          </mxGeometry>
        </mxCell>
        <mxCell id="Y8Cqh2QViEJ_tsUeTUq7-27" value="SMS" style="ellipse;whiteSpace=wrap;html=1;" parent="1" vertex="1">
          <mxGeometry x="600" y="410" width="120" height="80" as="geometry" />
        </mxCell>
        <mxCell id="Y8Cqh2QViEJ_tsUeTUq7-28" value="Mail" style="ellipse;whiteSpace=wrap;html=1;" parent="1" vertex="1">
          <mxGeometry x="580" y="720" width="120" height="80" as="geometry" />
        </mxCell>
        <mxCell id="Y8Cqh2QViEJ_tsUeTUq7-29" value="" style="endArrow=classic;html=1;rounded=0;" parent="1" source="Y8Cqh2QViEJ_tsUeTUq7-27" target="Y8Cqh2QViEJ_tsUeTUq7-25" edge="1">
          <mxGeometry width="50" height="50" relative="1" as="geometry">
            <mxPoint x="330" y="610" as="sourcePoint" />
            <mxPoint x="380" y="560" as="targetPoint" />
          </mxGeometry>
        </mxCell>
        <mxCell id="Y8Cqh2QViEJ_tsUeTUq7-30" value="" style="endArrow=classic;html=1;rounded=0;" parent="1" source="Y8Cqh2QViEJ_tsUeTUq7-28" target="Y8Cqh2QViEJ_tsUeTUq7-25" edge="1">
          <mxGeometry width="50" height="50" relative="1" as="geometry">
            <mxPoint x="330" y="610" as="sourcePoint" />
            <mxPoint x="380" y="560" as="targetPoint" />
          </mxGeometry>
        </mxCell>
      </root>
    </mxGraphModel>
  </diagram>
</mxfile>
